SplineFontDB: 3.2
FontName: DroideAnthro-Light
FullName: Droide Anthro Light
FamilyName: Droide Anthro Light
Weight: Light
Copyright: Copyright (c) 2023, Bao Nguyen (RandomMaerks) (rmforbusiness@gmail.com)
UComments: "2023-9-15: Created with FontForge (http://fontforge.org)"
Version: 0.1
ItalicAngle: 0
UnderlinePosition: -100
UnderlineWidth: 50
Ascent: 800
Descent: 200
InvalidEm: 0
LayerCount: 2
Layer: 0 0 "Back" 1
Layer: 1 0 "Fore" 0
XUID: [1021 366 1780442531 1493]
FSType: 0
OS2Version: 0
OS2_WeightWidthSlopeOnly: 0
OS2_UseTypoMetrics: 1
CreationTime: 1694783912
ModificationTime: 1694841393
PfmFamily: 17
TTFWeight: 300
TTFWidth: 5
LineGap: 90
VLineGap: 0
OS2TypoAscent: 0
OS2TypoAOffset: 1
OS2TypoDescent: 0
OS2TypoDOffset: 1
OS2TypoLinegap: 90
OS2WinAscent: 0
OS2WinAOffset: 1
OS2WinDescent: 0
OS2WinDOffset: 1
HheadAscent: 0
HheadAOffset: 1
HheadDescent: 0
HheadDOffset: 1
OS2Vendor: 'PfEd'
MarkAttachClasses: 1
DEI: 91125
LangName: 1033
Encoding: ISO8859-1
UnicodeInterp: none
NameList: AGL For New Fonts
DisplaySize: -36
AntiAlias: 1
FitToEm: 0
WinInfo: 0 26 5
BeginPrivate: 0
EndPrivate
Grid
-1000 -180 m 0
 2000 -180 l 1024
-1000 700 m 0
 2000 700 l 1024
  Named: "ascender line"
-1000 650 m 0
 2000 650 l 1024
  Named: "cap height"
-1000 480 m 0
 2000 480 l 1024
  Named: "x-height"
EndSplineSet
BeginChars: 256 53

StartChar: a
Encoding: 97 97 0
GlifName: a
Width: 555
Flags: HW
LayerCount: 2
Fore
SplineSet
555 99 m 1
 555 31.4518006207 525.248687917 -7 468 -7 c 0
 410.464646465 -7 379 36.1296497692 379 90 c 2
 379 310 l 2
 379 399.944051847 327.150716146 437 239 437 c 0
 159.379954268 437 119.25203252 381.862712379 96 317 c 1
 50 347 l 1
 76.5263157895 422.73046875 139.517989309 487 245 487 c 0
 348.009254336 487 431 433 431 321 c 2
 431 98 l 2
 431 59.4134114583 442.50495515 42 468 42 c 0
 492.793945312 42 510 73.1351124419 510 118 c 1
 555 99 l 1
393 283 m 1
 393 232 l 1
 313 232 l 2
 147.191784604 232 102 188.077159534 102 127 c 0
 102 78.0822610294 140.075120192 47 200 47 c 0
 298.699783805 47 379 123.71122286 379 218 c 1
 406 218 l 1
 406 85.75 317.935922477 -6 191 -6 c 0
 108.969726562 -6 50 49.6246674026 50 127 c 0
 50 221.735059862 114.728515625 283 302 283 c 2
 393 283 l 1
EndSplineSet
EndChar

StartChar: n
Encoding: 110 110 1
GlifName: n
Width: 537
Flags: HW
LayerCount: 2
Fore
SplineSet
75 480 m 5
 127 480 l 5
 127 0 l 5
 75 0 l 5
 75 480 l 5
91 305 m 5
 91 408.747335462 175.449560573 488 286 488 c 4
 394.341166059 488 462 423.800992795 462 321 c 6
 462 0 l 5
 410 0 l 5
 410 310 l 6
 410 395.687346438 363.720535166 438 270 438 c 4
 192.206464276 438 127 373.705514245 127 297 c 5
 91 305 l 5
EndSplineSet
EndChar

StartChar: h
Encoding: 104 104 2
GlifName: h
Width: 537
Flags: HW
LayerCount: 2
Fore
SplineSet
75 700 m 1
 127 700 l 1
 127 0 l 1
 75 0 l 1
 75 700 l 1
91 305 m 1
 91 408.747335462 175.449560573 488 286 488 c 0
 394.341166059 488 462 423.800992795 462 321 c 2
 462 0 l 1
 410 0 l 1
 410 310 l 2
 410 395.687346438 363.720535166 438 270 438 c 0
 192.206464276 438 127 373.705514245 127 297 c 1
 91 305 l 1
EndSplineSet
EndChar

StartChar: m
Encoding: 109 109 3
GlifName: m
Width: 832
Flags: HW
LayerCount: 2
Fore
SplineSet
406 305 m 1
 406 408.747335462 486.118813877 488 591 488 c 0
 693.185417987 488 757 423.800992795 757 321 c 2
 757 0 l 1
 705 0 l 1
 705 310 l 2
 705 395.687346438 662.026211226 438 575 438 c 0
 502.646571669 438 442 373.705514245 442 297 c 1
 406 305 l 1
75 480 m 1
 127 480 l 1
 127 0 l 1
 75 0 l 1
 75 480 l 1
91 305 m 1
 91 408.747335462 171.118813877 488 276 488 c 0
 378.185417987 488 442 423.800992795 442 321 c 2
 442 0 l 1
 390 0 l 1
 390 310 l 2
 390 395.687346438 347.026211226 438 260 438 c 0
 187.646571669 438 127 373.705514245 127 297 c 1
 91 305 l 1
EndSplineSet
EndChar

StartChar: u
Encoding: 117 117 4
GlifName: u
Width: 537
Flags: HW
LayerCount: 2
Fore
SplineSet
462 0 m 1
 410 0 l 1
 410 480 l 1
 462 480 l 1
 462 0 l 1
446 175 m 1
 446 71.2526645377 361.550439427 -8 251 -8 c 0
 142.658833941 -8 75 56.1990072055 75 159 c 2
 75 480 l 1
 127 480 l 1
 127 170 l 2
 127 84.3126535621 173.279464834 42 267 42 c 0
 344.793535724 42 410 106.294485755 410 183 c 1
 446 175 l 1
EndSplineSet
EndChar

StartChar: i
Encoding: 105 105 5
GlifName: i
Width: 202
Flags: HW
LayerCount: 2
Fore
SplineSet
44 633 m 28
 44 665 70 691 102 691 c 28
 134 691 160 665 160 633 c 28
 160 601 134 575 102 575 c 28
 70 575 44 601 44 633 c 28
75 480 m 1
 127 480 l 1
 127 0 l 1
 75 0 l 1
 75 480 l 1
EndSplineSet
EndChar

StartChar: l
Encoding: 108 108 6
GlifName: l
Width: 202
Flags: HW
LayerCount: 2
Fore
SplineSet
75 700 m 1
 127 700 l 1
 127 0 l 1
 75 0 l 1
 75 700 l 1
EndSplineSet
EndChar

StartChar: o
Encoding: 111 111 7
GlifName: o
Width: 561
Flags: HW
LayerCount: 2
Fore
SplineSet
449 241.939453125 m 6
 449 249 l 6
 449 366.794080393 388.333034733 434 282 434 c 4
 181.789844182 434 112 356.434970627 112 245.060546875 c 6
 112 238 l 6
 112 117.544167715 174.771378281 45 279 45 c 4
 386.821347725 45 449 117.031939854 449 241.939453125 c 6
60 246 m 6
 60 389.098976143 152.21382745 487 287 487 c 4
 415.913304931 487 501 392.370871839 501 249 c 6
 501 241 l 6
 501 83.2151173936 417.844049605 -8 274 -8 c 4
 147.107590795 -8 60 92.1330249325 60 238 c 6
 60 246 l 6
EndSplineSet
EndChar

StartChar: c
Encoding: 99 99 8
GlifName: c
Width: 531
Flags: HW
LayerCount: 2
Fore
SplineSet
50 248 m 6
 50 388.490305728 140.954420707 486 272 486 c 4
 371.312120596 486 447.63452547 434.874944103 481 346 c 5
 435 319 l 5
 403.13966502 397.926986691 352.050236904 436 278 436 c 4
 169.225851693 436 102 363.808602444 102 247 c 6
 102 239 l 6
 102 118.483187955 169.225851693 44 278 44 c 4
 352.050236904 44 403.13966502 83.0492444197 435 164 c 5
 481 134 l 5
 447.63452547 45.1250558968 371.312120596 -6 272 -6 c 4
 140.954420707 -6 50 93.9679218582 50 238 c 6
 50 248 l 6
EndSplineSet
EndChar

StartChar: e
Encoding: 101 101 9
GlifName: e
Width: 541
Flags: HW
LayerCount: 2
Fore
SplineSet
76 219 m 1
 483 219 l 1
 483 271 l 1
 76 271 l 1
 76 219 l 1
102 239 m 2
 102 247 l 2
 102 363.808602444 166.934061294 436 272 436 c 0
 370 436 430 369 430 262 c 2
 430 244 l 1
 483 244 l 1
 483 271 l 2
 483 389 402 486 266 486 c 0
 138.49619312 486 50 388.490305728 50 248 c 2
 50 238 l 2
 50 93.9679218582 142.1835345 -6 275 -6 c 0
 372.886587764 -6 448.113455727 41.4732661899 481 124 c 1
 435 154 l 1
 403.54552916 79.7951407181 353.106921785 44 280 44 c 0
 169.989781825 44 102 118.483187955 102 239 c 2
EndSplineSet
EndChar

StartChar: s
Encoding: 115 115 10
GlifName: s
Width: 481
Flags: HW
LayerCount: 2
Fore
SplineSet
367 480 m 5
 416 480 l 5
 416 292 l 5
 367 292 l 5
 367 480 l 5
423 127 m 4
 423 34.8048780488 354.957706279 -8 244 -8 c 4
 146.127659574 -8 60 53 60 135 c 5
 116 151 l 5
 116 70.7571117418 190.015860172 47 244 47 c 4
 325.240070609 47 367 72.1604395604 367 119 c 4
 367 187.46031746 317.349206349 195 231 214 c 4
 148.941935484 231.735528987 70 256.212745929 70 355 c 4
 70 446.87804878 127.778930981 491 222 491 c 4
 311.361702128 491 390 420 390 348 c 5
 367 332 l 5
 367 406.100719424 281.419161677 441 219 441 c 4
 157.574580759 441 126 413.092307692 126 364 c 4
 126 297.701587302 166.888888889 290.4 238 272 c 4
 332.290322581 253.761335439 423 228.589729364 423 127 c 4
EndSplineSet
EndChar

StartChar: r
Encoding: 114 114 11
GlifName: r
Width: 350
Flags: HW
LayerCount: 2
Fore
SplineSet
75 480 m 1
 127 480 l 1
 127 0 l 1
 75 0 l 1
 75 480 l 1
95 256 m 1
 95 416.05971666 182.887756932 487 278 487 c 2
 310 487 l 1
 310 434 l 1
 287 434 l 2
 191.998052619 434 126 366.933950978 126 246 c 1
 95 256 l 1
EndSplineSet
EndChar

StartChar: t
Encoding: 116 116 12
GlifName: t
Width: 348
Flags: HW
LayerCount: 2
Fore
SplineSet
30 430 m 1
 30 480 l 1
 304 480 l 1
 304 430 l 1
 30 430 l 1
122 610 m 5
 174 610 l 5
 174 98 l 6
 174 59.4134114583 189.547236689 42 224 42 c 4
 252.926269531 42 273 73.1351124419 273 118 c 5
 318 99 l 5
 318 31.4518006207 278 -7 224 -7 c 4
 158.060606061 -7 122 36.1296497692 122 90 c 6
 122 610 l 5
EndSplineSet
EndChar

StartChar: f
Encoding: 102 102 13
GlifName: f
Width: 348
Flags: HW
LayerCount: 2
Fore
SplineSet
30 430 m 1
 30 480 l 1
 304 480 l 1
 304 430 l 1
 30 430 l 1
358 601 m 1
 313 582 l 1
 313 626.864887558 284.732910156 658 244 658 c 0
 195.766131364 658 174 634.367513021 174 582 c 2
 174 0 l 1
 122 0 l 1
 122 590 l 2
 122 654.977638938 165.131313131 707 244 707 c 0
 309.489361702 707 358 668.548199379 358 601 c 1
EndSplineSet
EndChar

StartChar: j
Encoding: 106 106 14
GlifName: j
Width: 202
Flags: HW
LayerCount: 2
Fore
SplineSet
44 633 m 24
 44 665 70 691 102 691 c 24
 134 691 160 665 160 633 c 24
 160 601 134 575 102 575 c 24
 70 575 44 601 44 633 c 24
-69 -80 m 5
 -24 -61 l 5
 -24 -105.864887558 -3.92626953125 -137 25 -137 c 4
 59.4527633111 -137 75 -119.586588542 75 -81 c 6
 75 480 l 5
 127 480 l 5
 127 -89 l 6
 127 -142.870350231 90.9393939394 -186 25 -186 c 4
 -29 -186 -69 -147.548199379 -69 -80 c 5
EndSplineSet
EndChar

StartChar: b
Encoding: 98 98 15
GlifName: b
Width: 572
Flags: HW
LayerCount: 2
Fore
SplineSet
512 232 m 6
 512 91.5096942715 428.420262053 -6 308 -6 c 4
 185.750022894 -6 101 83.2536472986 101 212 c 5
 127 239 l 5
 127 120.316445553 196.271850579 44 304 44 c 4
 400.413449636 44 460 116.191397556 460 233 c 6
 460 241 l 6
 460 361.516812045 400.413449636 436 304 436 c 4
 199.929230172 436 127 354.830178848 127 239 c 5
 101 269 l 5
 101 398.07526364 184.872905191 486 308 486 c 4
 428.420262053 486 512 386.032078142 512 242 c 6
 512 232 l 6
75 700 m 5
 127 700 l 5
 127 0 l 5
 75 0 l 5
 75 700 l 5
EndSplineSet
EndChar

StartChar: d
Encoding: 100 100 16
GlifName: d
Width: 572
Flags: HW
LayerCount: 2
Fore
SplineSet
60 232 m 2
 60 242 l 2
 60 386.032078142 143.579737947 486 264 486 c 0
 387.127094809 486 471 398.07526364 471 269 c 1
 445 239 l 1
 445 354.830178848 372.070769828 436 268 436 c 0
 171.586550364 436 112 361.516812045 112 241 c 2
 112 233 l 2
 112 116.191397556 171.586550364 44 268 44 c 0
 375.728149421 44 445 120.316445553 445 239 c 1
 471 212 l 1
 471 83.2536472986 386.249977106 -6 264 -6 c 0
 143.579737947 -6 60 91.5096942715 60 232 c 2
497 700 m 1
 497 0 l 1
 445 0 l 1
 445 700 l 1
 497 700 l 1
EndSplineSet
EndChar

StartChar: p
Encoding: 112 112 17
GlifName: p
Width: 572
Flags: HW
LayerCount: 2
Fore
SplineSet
512 232 m 2
 512 91.5096942715 428.420262053 -6 308 -6 c 0
 185.750022894 -6 101 83.2536472986 101 212 c 1
 127 239 l 1
 127 120.316445553 196.271850579 44 304 44 c 0
 400.413449636 44 460 116.191397556 460 233 c 2
 460 241 l 2
 460 361.516812045 400.413449636 436 304 436 c 0
 199.929230172 436 127 354.830178848 127 239 c 1
 101 269 l 1
 101 398.07526364 184.872905191 486 308 486 c 0
 428.420262053 486 512 386.032078142 512 242 c 2
 512 232 l 2
75 480 m 1
 127 480 l 1
 127 -180 l 1
 75 -180 l 1
 75 480 l 1
EndSplineSet
EndChar

StartChar: q
Encoding: 113 113 18
GlifName: q
Width: 572
Flags: HW
LayerCount: 2
Fore
SplineSet
60 232 m 6
 60 242 l 6
 60 386.032078142 143.579737947 486 264 486 c 4
 387.127094809 486 471 398.07526364 471 269 c 5
 445 239 l 5
 445 354.830178848 372.070769828 436 268 436 c 4
 171.586550364 436 112 361.516812045 112 241 c 6
 112 233 l 6
 112 116.191397556 171.586550364 44 268 44 c 4
 375.728149421 44 445 120.316445553 445 239 c 5
 471 212 l 5
 471 83.2536472986 386.249977106 -6 264 -6 c 4
 143.579737947 -6 60 91.5096942715 60 232 c 6
497 480 m 5
 497 -180 l 5
 445 -180 l 5
 445 480 l 5
 497 480 l 5
EndSplineSet
EndChar

StartChar: g
Encoding: 103 103 19
GlifName: g
Width: 572
Flags: HW
LayerCount: 2
Fore
SplineSet
60 242 m 2
 60 252 l 2
 60 390.12912412 143.579737947 486 264 486 c 0
 387.127094809 486 471 402.127094809 471 279 c 1
 445 249 l 1
 445 358.950474338 372.070769828 436 268 436 c 0
 171.586550364 436 112 365.336462709 112 251 c 2
 112 243 l 2
 112 132.371746892 171.586550364 64 268 64 c 0
 375.728149421 64 445 136.402781678 445 249 c 1
 471 222 l 1
 471 99.1594432941 386.249977106 14 264 14 c 0
 143.579737947 14 60 107.412648294 60 242 c 2
445 -1 m 2
 445 480 l 1
 497 480 l 1
 497 -12 l 2
 497 -122.975535617 414.649375846 -200 296 -200 c 0
 186.709149584 -200 102.717986325 -148.874944103 66 -60 c 1
 112 -33 l 1
 148.121908448 -111.926986691 206.044954338 -150 290 -150 c 0
 385.795414703 -150 445 -93.0872051012 445 -1 c 2
EndSplineSet
EndChar

StartChar: v
Encoding: 118 118 20
GlifName: v
Width: 497
Flags: HW
LayerCount: 2
Fore
SplineSet
246 56 m 1
 404 480 l 1
 462 480 l 1
 288 0 l 1
 201 0 l 29
 35 480 l 1
 93 480 l 1
 244 56 l 29
 246 56 l 1
EndSplineSet
EndChar

StartChar: w
Encoding: 119 119 21
GlifName: w
Width: 820
Flags: HW
LayerCount: 2
Fore
SplineSet
602 56 m 1
 730 480 l 1
 785 480 l 1
 638 0 l 1
 557 0 l 1
 413 428 l 1
 406 428 l 1
 255 0 l 1
 174 0 l 1
 35 480 l 1
 90 480 l 1
 214 56 l 1
 216 56 l 1
 367 480 l 1
 453 480 l 1
 597 56 l 1
 602 56 l 1
EndSplineSet
EndChar

StartChar: x
Encoding: 120 120 22
GlifName: x
Width: 497
Flags: HW
LayerCount: 2
Fore
SplineSet
251.557617188 208 m 1
 244.513671875 208 l 1
 107 0 l 1
 35 0 l 1
 201.776367188 239.248046875 l 1
 35 480 l 1
 103 480 l 1
 244.513671875 273 l 1
 251.557617188 273 l 1
 390 480 l 5
 462 480 l 1
 294.334960938 240.748046875 l 1
 462 0 l 1
 394 0 l 1
 251.557617188 208 l 1
EndSplineSet
EndChar

StartChar: y
Encoding: 121 121 23
GlifName: y
Width: 497
Flags: HW
LayerCount: 2
Fore
SplineSet
260 69 m 1
 404 480 l 1
 462 480 l 1
 230 -180 l 1
 171 -180 l 1
 188 -123 l 1
 189 -120 l 1
 226 -1 l 1
 226 0 l 1
 35 480 l 1
 93 480 l 1
 258 69 l 1
 260 69 l 1
EndSplineSet
EndChar

StartChar: z
Encoding: 122 122 24
GlifName: z
Width: 531
Flags: HW
LayerCount: 2
Fore
SplineSet
114 480 m 5
 114 252 l 5
 65 252 l 5
 65 480 l 5
 114 480 l 5
410 427 m 5
 110 427 l 5
 114 480 l 5
 477 480 l 5
 477 421 l 5
 137 53 l 5
 471 53 l 5
 471 0 l 5
 67 0 l 5
 67 55 l 5
 410 427 l 5
EndSplineSet
EndChar

StartChar: k
Encoding: 107 107 25
GlifName: k
Width: 484
Flags: HW
LayerCount: 2
Fore
SplineSet
75 700 m 5
 127 700 l 5
 127 0 l 5
 75 0 l 5
 75 700 l 5
401 53 m 5
 442 53 l 5
 442 0 l 5
 385 0 l 5
 382 0 171 217 171 217 c 5
 125 217 l 5
 125 270 l 5
 171 270 l 5
 171 270 378 480 380 480 c 5
 442 480 l 5
 442 427 l 5
 401 427 l 5
 399 427 223.725585938 243.254882812 223.725585938 243.254882812 c 5
 223.725585938 243.254882812 399 53 401 53 c 5
EndSplineSet
EndChar

StartChar: H
Encoding: 72 72 26
GlifName: H_
Width: 631
Flags: HW
LayerCount: 2
Fore
SplineSet
75 650 m 1
 127 650 l 1
 127 360 l 5
 505 360 l 5
 505 650 l 1
 557 650 l 1
 557 0 l 1
 505 0 l 1
 505 310 l 5
 127 310 l 5
 127 0 l 1
 75 0 l 1
 75 650 l 1
EndSplineSet
EndChar

StartChar: N
Encoding: 78 78 27
GlifName: N_
Width: 631
Flags: HW
LayerCount: 2
Fore
SplineSet
75 650 m 1
 147 650 l 1
 505 78 l 1
 505 650 l 1
 557 650 l 1
 557 0 l 1
 505 0 l 1
 495 0 l 1
 127 591 l 1
 127 0 l 1
 75 0 l 1
 75 650 l 1
EndSplineSet
EndChar

StartChar: M
Encoding: 77 77 28
GlifName: M_
Width: 834
Flags: HW
LayerCount: 2
Fore
SplineSet
454 50 m 1
 380 50 l 1
 127 578 l 1
 127 0 l 1
 75 0 l 1
 75 650 l 1
 156 650 l 1
 413.307617188 107 l 1
 420.692382812 107 l 1
 674 650 l 1
 759 650 l 1
 759 0 l 1
 707 0 l 1
 707 578 l 1
 454 50 l 1
EndSplineSet
EndChar

StartChar: L
Encoding: 76 76 29
GlifName: L_
Width: 490
Flags: HW
LayerCount: 2
Fore
SplineSet
75 650 m 5
 127 650 l 5
 127 50 l 5
 455 50 l 5
 455 0 l 5
 75 0 l 5
 75 650 l 5
EndSplineSet
EndChar

StartChar: E
Encoding: 69 69 30
GlifName: E_
Width: 540
Flags: HW
LayerCount: 2
Fore
SplineSet
102 50 m 1
 490 50 l 1
 490 0 l 1
 50 0 l 1
 50 64 l 1
 50 325 l 1
 50 580 l 1
 50 650 l 1
 490 650 l 1
 490 600 l 1
 102 600 l 1
 102 350 l 5
 428 350 l 1
 428 300 l 1
 102 300 l 5
 102 50 l 1
EndSplineSet
EndChar

StartChar: F
Encoding: 70 70 31
GlifName: F_
Width: 540
Flags: HW
LayerCount: 2
Fore
SplineSet
102 0 m 1
 50 0 l 1
 50 325 l 1
 50 580 l 1
 50 650 l 1
 490 650 l 1
 490 600 l 1
 102 600 l 1
 102 350 l 1
 428 350 l 1
 428 300 l 1
 102 300 l 1
 102 0 l 1
EndSplineSet
EndChar

StartChar: T
Encoding: 84 84 32
GlifName: T_
Width: 558
Flags: HW
LayerCount: 2
Fore
SplineSet
305 0 m 1
 253 0 l 1
 253 600 l 1
 35 600 l 1
 35 650 l 1
 523 650 l 1
 523 600 l 1
 305 600 l 1
 305 0 l 1
EndSplineSet
EndChar

StartChar: O
Encoding: 79 79 33
GlifName: O_
Width: 661
Flags: HW
LayerCount: 2
Fore
SplineSet
549 315.939453125 m 6
 549 323 l 6
 549 504.466556282 470.169272678 608 332 608 c 4
 202.316268941 608 112 489.382121108 112 319.060546875 c 6
 112 312 l 6
 112 145.359029947 193.565204114 45 329 45 c 4
 468.53350882 45 549 144.097941432 549 315.939453125 c 6
60 320 m 6
 60 522.476144667 172.525243188 661 337 661 c 4
 496.033235989 661 601 526.610733956 601 323 c 6
 601 315 l 6
 601 110.323224571 499.527760972 -8 324 -8 c 4
 167.459831635 -8 60 122.254341376 60 312 c 6
 60 320 l 6
EndSplineSet
EndChar

StartChar: C
Encoding: 67 67 34
GlifName: C_
Width: 611
Flags: HW
LayerCount: 2
Fore
SplineSet
50 328 m 6
 50 523.978073537 161.439650596 660 322 660 c 4
 435.567448911 660 522.845222906 597.919574982 561 490 c 5
 515 463 l 5
 477.051702922 562.164675586 416.199963701 610 328 610 c 4
 188.324105014 610 102 501.903886199 102 327 c 6
 102 319 l 6
 102 149.04039327 188.324105014 44 328 44 c 4
 416.199963701 44 477.051702922 92.8115555247 515 194 c 5
 561 164 l 5
 522.845222906 56.0804250175 435.567448911 -6 322 -6 c 4
 161.439650596 -6 50 126.744289681 50 318 c 6
 50 328 l 6
EndSplineSet
EndChar

StartChar: G
Encoding: 71 71 35
GlifName: G_
Width: 612
Flags: HW
LayerCount: 2
Fore
SplineSet
50 328 m 2
 50 523.978073537 161.439650596 660 322 660 c 0
 435.567448911 660 522.845222906 597.919574982 561 490 c 1
 515 463 l 1
 477.051702922 562.164675586 416.199963701 610 328 610 c 0
 188.324105014 610 102 501.903886199 102 327 c 2
 102 319 l 2
 102 149.04039327 188.324105014 44 328 44 c 0
 429.96741934 44 500 108.739420494 500 203 c 1
 534 190 l 1
 534 79.4147579579 441.612608739 -6 322 -6 c 0
 161.439650596 -6 50 126.744289681 50 318 c 2
 50 328 l 2
298 280 m 1
 298 330 l 1
 552 330 l 1
 552 0 l 1
 500 0 l 1
 500 280 l 1
 298 280 l 1
EndSplineSet
EndChar

StartChar: S
Encoding: 83 83 36
GlifName: S_
Width: 581
Flags: HW
LayerCount: 2
Fore
SplineSet
467 650 m 1
 516 650 l 1
 516 412 l 1
 467 412 l 1
 467 650 l 1
523 172 m 0
 523 54.6814586641 446.737558625 -8 304 -8 c 0
 169.112025235 -8 60 82.7776275523 60 195 c 1
 116 211 l 1
 116 111.353393317 189.77096307 47 304 47 c 0
 410.851080109 47 467 87.3032124371 467 164 c 0
 467 248.383554529 419.018523639 284.498644263 281 304 c 0
 136.646465006 325.12490756 70 382.295571854 70 485 c 0
 70 599.050018651 141.101683139 661 272 661 c 0
 384.874689363 661 490 567.930344253 490 468 c 1
 467 452 l 1
 467 540.490358076 379.195540246 611 269 611 c 0
 176.182412198 611 126 569.941662747 126 494 c 0
 126 415.759986241 169.269351383 380.503477707 288 362 c 0
 451.669086745 337.147151663 523 279.475349457 523 172 c 0
EndSplineSet
EndChar

StartChar: Q
Encoding: 81 81 37
GlifName: Q_
Width: 631
Flags: HW
LayerCount: 2
Fore
SplineSet
296 276 m 5
 331 313 l 5
 331 313 628 37 631 34 c 6
 633 32 l 5
 607 -9 l 5
 604 -6 l 6
 601.12 -3.84 296 276 296 276 c 5
549 315.939453125 m 2
 549 323 l 2
 549 504.466556282 470.169272678 608 332 608 c 0
 202.316268941 608 112 489.382121108 112 319.060546875 c 2
 112 312 l 2
 112 145.359029947 193.565204114 45 329 45 c 0
 468.53350882 45 549 144.097941432 549 315.939453125 c 2
60 320 m 2
 60 522.476144667 172.525243188 661 337 661 c 0
 496.033235989 661 601 526.610733956 601 323 c 2
 601 315 l 2
 601 110.323224571 499.527760972 -8 324 -8 c 0
 167.459831635 -8 60 122.254341376 60 312 c 2
 60 320 l 2
EndSplineSet
EndChar

StartChar: I
Encoding: 73 73 38
GlifName: I_
Width: 202
Flags: HW
LayerCount: 2
Fore
SplineSet
75 650 m 1
 127 650 l 1
 127 0 l 1
 75 0 l 1
 75 650 l 1
EndSplineSet
EndChar

StartChar: A
Encoding: 65 65 39
GlifName: A_
Width: 613
Flags: HW
LayerCount: 2
Fore
SplineSet
131 180 m 1
 131 230 l 1
 495 230 l 1
 495 180 l 1
 131 180 l 1
309 594 m 1
 93 0 l 1
 35 0 l 1
 267 650 l 1
 354 650 l 1
 578 0 l 1
 520 0 l 1
 311 594 l 1
 309 594 l 1
EndSplineSet
EndChar

StartChar: R
Encoding: 82 82 40
GlifName: R_
Width: 624
Flags: HWO
LayerCount: 2
Fore
SplineSet
300 266 m 1
 331 303 l 1
 331 303 565 5 568 2 c 2
 570 0 l 1
 505 0 l 1
 502 3 l 2
 499.5 5.5 300 266 300 266 c 1
564 439 m 2
 564 325.533559523 494.982983395 260 335 260 c 0
 268 260 197 260 127 260 c 1
 123 310 l 1
 189 310 252 310 320 310 c 0
 456.477667048 310 512 352.847649194 512 439 c 2
 512 443 l 2
 512 550.035298795 455.502963116 601 315 601 c 2
 123 601 l 1
 127 650 l 1
 330 650 l 2
 489.800563944 650 564 572.077170867 564 443 c 2
 564 439 l 2
75 650 m 1
 127 650 l 1
 127 0 l 1
 75 0 l 1
 75 650 l 1
EndSplineSet
EndChar

StartChar: V
Encoding: 86 86 41
GlifName: V_
Width: 613
Flags: HW
LayerCount: 2
Fore
SplineSet
304 56 m 1
 520 650 l 1
 578 650 l 1
 346 0 l 1
 259 0 l 1
 35 650 l 1
 93 650 l 1
 302 56 l 1
 304 56 l 1
EndSplineSet
EndChar

StartChar: W
Encoding: 87 87 42
GlifName: W_
Width: 976
Flags: HW
LayerCount: 2
Fore
SplineSet
720 56 m 1
 883 650 l 1
 941 650 l 1
 762 0 l 1
 675 0 l 1
 491 598 l 5
 484 598 l 1
 293 0 l 1
 206 0 l 1
 35 650 l 1
 93 650 l 1
 249 56 l 1
 251 56 l 1
 442 650 l 1
 534 650 l 5
 718 56 l 1
 720 56 l 1
EndSplineSet
EndChar

StartChar: X
Encoding: 88 88 43
GlifName: X_
Width: 617
Flags: HW
LayerCount: 2
Fore
SplineSet
311.557617188 288 m 5
 304.513671875 288 l 5
 105 0 l 1
 35 0 l 1
 261.776367188 319.248046875 l 1
 35 650 l 1
 105 650 l 1
 304.513671875 352 l 5
 311.557617188 352 l 5
 512 650 l 1
 582 650 l 1
 354.334960938 320.748046875 l 1
 582 0 l 1
 512 0 l 1
 311.557617188 288 l 5
EndSplineSet
EndChar

StartChar: Y
Encoding: 89 89 44
GlifName: Y_
Width: 613
Flags: HW
LayerCount: 2
Fore
SplineSet
277 250 m 1
 329 250 l 1
 329 0 l 1
 277 0 l 1
 277 250 l 1
304 274 m 1
 520 650 l 1
 578 650 l 1
 326 208 l 1
 279 208 l 1
 35 650 l 1
 93 650 l 1
 302 274 l 1
 304 274 l 1
EndSplineSet
EndChar

StartChar: Z
Encoding: 90 90 45
GlifName: Z_
Width: 617
Flags: HW
LayerCount: 2
Fore
SplineSet
114 650 m 1
 114 422 l 1
 65 422 l 1
 65 650 l 1
 114 650 l 1
496 597 m 5
 110 597 l 1
 114 650 l 1
 563 650 l 5
 563 591 l 5
 137 53 l 1
 557 53 l 5
 557 0 l 5
 67 0 l 1
 67 55 l 1
 496 597 l 5
EndSplineSet
EndChar

StartChar: D
Encoding: 68 68 46
GlifName: D_
Width: 624
Flags: HW
LayerCount: 2
Fore
SplineSet
564 309 m 2
 564 113.127764764 464.844548196 -1.62370117351e-14 235 0 c 2
 235 0 134 0 127 0 c 1
 123 50 l 1
 130 50 220 50 220 50 c 2
 427.559785302 50 512 136.027450708 512 309 c 2
 512 313 l 2
 512 508.102316791 426.82426419 601 215 601 c 2
 123 601 l 1
 127 650 l 1
 230 650 l 2
 458.091403237 650 564 523.140128416 564 313 c 2
 564 309 l 2
75 650 m 1
 127 650 l 1
 127 0 l 1
 75 0 l 1
 75 650 l 1
EndSplineSet
EndChar

StartChar: J
Encoding: 74 74 47
GlifName: J_
Width: 461
Flags: HW
LayerCount: 2
Fore
SplineSet
50 168 m 1
 95 187 l 1
 95 100.811523438 143.751953125 41 214 41 c 0
 296.6875 41 334 80.1796875 334 167 c 2
 334 650 l 1
 386 650 l 1
 386 159 l 2
 386 66.2548828125 325.899448129 -8 216 -8 c 4
 120.638171684 -8 50 55.8447265625 50 168 c 1
EndSplineSet
EndChar

StartChar: B
Encoding: 66 66 48
GlifName: B_
Width: 624
Flags: HW
LayerCount: 2
Fore
SplineSet
554 482 m 2
 554 478 l 2
 554 371.130731091 473.742827757 307 340 307 c 2
 127 307 l 1
 123 349 l 1
 345 349 l 2
 449.192954954 349 502 389.025722041 502 468 c 2
 502 472 l 2
 502 555.430476408 456.439802144 597 365 597 c 2
 365 597 139 597 123 597 c 1
 127 650 l 1
 151 650 370 650 370 650 c 2
 484.809562587 650 554 586.826122362 554 482 c 2
564 166 m 2
 564 62.5359052943 494.683092927 0 380 0 c 2
 380 0 143 0 127 0 c 1
 107 53 l 1
 121 53 375 53 375 53 c 2
 466.271997293 53 512 94.055068124 512 176 c 2
 512 182 l 2
 512 253.386294591 448.665314754 297 345 297 c 2
 123 297 l 1
 127 339 l 1
 340 339 l 2
 473.329538566 339 564 271.40193277 564 172 c 2
 564 166 l 2
75 0 m 1
 75 650 l 1
 127 650 l 1
 127 0 l 1
 75 0 l 1
EndSplineSet
EndChar

StartChar: K
Encoding: 75 75 49
GlifName: K_
Width: 556
Flags: HW
LayerCount: 2
Fore
SplineSet
75 650 m 1
 127 650 l 1
 127 0 l 1
 75 0 l 1
 75 650 l 1
473 53 m 1
 514 53 l 1
 514 0 l 1
 457 0 l 1
 453 0 171 297 171 297 c 1
 125 297 l 1
 125 350 l 1
 171 350 l 1
 171 350 449 650 452 650 c 1
 514 650 l 1
 514 597 l 1
 473 597 l 1
 470 597 224 323 224 323 c 1
 224 323 470 53 473 53 c 1
EndSplineSet
EndChar

StartChar: P
Encoding: 80 80 50
GlifName: P_
Width: 624
Flags: HW
LayerCount: 2
Fore
SplineSet
564 429 m 6
 564 309.194652234 494.982983395 240 335 240 c 4
 268 240 197 240 127 240 c 5
 123 290 l 5
 189 290 252 290 320 290 c 4
 456.477667048 290 512 336.169172388 512 429 c 6
 512 433 l 6
 512 546.809684795 455.502963116 601 315 601 c 6
 123 601 l 5
 127 650 l 5
 330 650 l 6
 489.800563944 650 564 568.312782986 564 433 c 6
 564 429 l 6
75 650 m 1
 127 650 l 1
 127 0 l 1
 75 0 l 1
 75 650 l 1
EndSplineSet
EndChar

StartChar: U
Encoding: 85 85 51
GlifName: U_
Width: 631
Flags: HW
LayerCount: 2
Fore
SplineSet
127 650 m 1
 127 230 l 2
 127 106.802616526 189.470752921 45 314 45 c 0
 439.034497326 45 504 112.358968562 504 242 c 2
 504 650 l 1
 556 650 l 1
 556 229 l 2
 556 86.8347297139 459.964830669 -8 316 -8 c 0
 166.95510357 -8 75 78.9948697675 75 220 c 2
 75 650 l 1
 127 650 l 1
EndSplineSet
EndChar

